<svg width="174" height="52" fill="none" xmlns="http://www.w3.org/2000/svg"><g clip-path="url(#a)"><path d="M51.6 20.9a22.2 22.2 0 0 0-7-9.1 22 22 0 0 0-10.5-4.4A21.9 21.9 0 0 0 23 8.8a22 22 0 0 0-9 7 22.4 22.4 0 0 0-4.5 10.5 22.4 22.4 0 0 0 1.3 11.4 22.2 22.2 0 0 0 6.9 9.2A22 22 0 0 0 28 51.4l-1.5-6a27.8 27.8 0 0 0 4.1 2.3s.2 1.9.3 4c1.5 0 3-.1 4.6-.4a1.9 1.9 0 0 1 0-.7c.2-1.6 1-4.5 1-6.4a13.2 13.2 0 0 0 2.6-3.3l-.1.4c-.5 3.7-1.5 7.7-2 8.8a4.8 4.8 0 0 1-.8 1 22 22 0 0 0 8.6-4.2 22.2 22.2 0 0 0 6-7.4 22.4 22.4 0 0 0 .8-18.6zM50.3 24c-.4.4-1.1.7-1.3-.5l-.1-1.9s-1.7-3-2.3-3c-.6 0-5 3-6.2 4.4-1 1-1.2 1-1.2 3 0 1.5.2 7 0 11.4l-7 1.8a54.7 54.7 0 0 1-6.7 1.5l-.8-5h-.1l-2.3-11.5-4.5-1.6a3.2 3.2 0 0 0-3.4.6c-.5.4-.8 1-1.1 1.5a4.4 4.4 0 0 0-.4 1.8l.4 1.3c0 .4-1 .4-1.7.4s-.8-1.3-.2-2.8a20 20 0 0 1 1.5-3.2 10.3 10.3 0 0 1 1.8-2.5s.1-.3 1-.2l6.4.3v-2a122 122 0 0 1 17.4-1v1.5a19.3 19.3 0 0 1 7-1.7.8.8 0 0 1 .7.3l2.3 3 1.6 2.5a5.4 5.4 0 0 1-.8 1.6z" fill="#FDC305"/><path d="m48.6 18.8.9 1.1 1.6 2.7a5.4 5.4 0 0 1-.8 1.5c-.3.4-1.1.6-1.3-.5l-.1-1.9s-1.7-3-2.3-3c-.6 0-5 3-6.2 4.4-1 1-1.2 1-1.2 3l.1 9.7c1.6.2 3.8.6 4.5 1.7 0 0-.2-6.3 6.8-3 0 0 .2-8.5 9.8-6.3a37.7 37.7 0 0 0-11.8-9.4zm-9-2a79.3 79.3 0 0 0-1.2-14.4s-.2-1-.8-.2a12.5 12.5 0 0 0-1 3.5 60.5 60.5 0 0 0-11 .3c-.8-2.4-2-3.5-2.6-3.2-.5.3-.6 2.9-.6 2.9L22.1 18a122 122 0 0 1 17.5-1.2z" fill="#F06351"/><path d="M39 41c.2-1 .2-2.2.3-3.6l-7 1.9a54.7 54.7 0 0 1-6.8 1.5l1 4.4v.3a27.8 27.8 0 0 0 4.1 2.2 36.5 36.5 0 0 0 6-3.6A13.2 13.2 0 0 0 39 41z" fill="#E55645"/><path d="m27.6 14 1.2.9.5.5c0 .2-.2.3-.5.3l-.9-.2c0-.1.5 0 .8 0h.3a7 7 0 0 1-1.4-1.4zm6.4.2-1 1.2s0 .2.3.2a7 7 0 0 0 1-.2l-.1-.2-.9.1.8-1.1s0-.1 0 0zm-2.7 5.3a2 2 0 0 0 1-.9c.2-.5 0-.8-.4-.8a2.1 2.1 0 0 0-1.5.3c-.4.3-.3.6 0 .8.3.3.6.4 1 .6z" fill="#000"/><path d="M31 20.6a1.8 1.8 0 0 1-.4.5c-.2.2-.5.3-.8.3a1.9 1.9 0 0 1-1.4-.3 1.7 1.7 0 0 1-.4-.4.9.9 0 0 0-.3-.2s.6 3.5 2.2 4.1c1.5.6 1.8-.7 1.9-1a5 5 0 0 0-.7-2.8v-.2z" fill="#F06351"/><path d="M29.5 21.6a3 3 0 0 1-2-1.3.1.1 0 0 1 0-.1.1.1 0 0 1 .1 0 2.8 2.8 0 0 0 2 1.1 1.8 1.8 0 0 0 1.3-.9l.1-.1.1.2s.4.6.9.7c.5 0 1-.4 1.4-1.2a.1.1 0 0 1 .2 0 .1.1 0 0 1 0 .2c-.6.8-1.1 1.2-1.6 1.2a1.3 1.3 0 0 1-1-.6 2 2 0 0 1-1.5.8z" fill="#000"/><path d="M31.2 33.3c1.8 0 3.3-1.5 3.3-3.3 0-1.8-1.5-3.2-3.3-3.2S28 28.2 28 30s1.5 3.3 3.2 3.3z" fill="#FDC305"/><path d="m35.5 27.4-2.7 1.1 1-4.9-6.4 8.5L30 31l-1 4.9 6.5-8.5zm-6.3 3.3 3.5-4.7-.7 3.5 1.8-.7-3.7 4.7.7-3.5-1.6.7zm-1.3-1.3a1 1 0 0 0 1-1 1 1 0 0 0-1-1 1 1 0 0 0-1 1c0 .6.5 1 1 1zm5.7 3.6c.3 0 .6-.4.6-.7a.7.7 0 0 0-.6-.7.7.7 0 0 0-.7.7c0 .3.3.6.7.6zm.8-2a.3.3 0 0 0 .3-.2.3.3 0 0 0-.3-.3.3.3 0 0 0-.3.3c0 .1.1.3.3.3z" fill="#111"/><path d="M39.5 18.4a49.7 49.7 0 0 0-4.4 4.5 27.6 27.6 0 0 1-4.5 4.3c-.2-.5-1.4-1.3-1.4-1.3s-2.7-2-4.5-3.4A27.6 27.6 0 0 1 22 20h-1.7a19.5 19.5 0 0 0 10.3 7.6c.7-.1 2.8-1.6 4.4-2.9a49.9 49.9 0 0 0 5.1-5c.5-.6.8-1.2 1-1.8l-1.6.6zm-17.2 6-4.5-1.7a3.2 3.2 0 0 0-3.4.6c-.5.4-.8 1-1.1 1.5a4.4 4.4 0 0 0-.4 1.8l.4 1.3c0 .4-1 .4-1.7.4s-.8-1.3-.2-2.8a20 20 0 0 1 1.5-3.2C8.2 24.8 0 30.5 0 30.5a39.1 39.1 0 0 1 7 .2c4.6.4 4.4 4 4.4 4a33 33 0 0 1 4.8-1c1.8 0 2 2 2 2l.4 3.3a15.8 15.8 0 0 1 2.3-2 5.2 5.2 0 0 1 3.8-1.2l-2.4-11.5z" fill="#F06351"/><path d="M73.8 36.5a7.3 7.3 0 0 1-1.2-4.5v-6.5a7.4 7.4 0 0 1 1.2-4.6c.8-1 2.1-1.5 4-1.5 2 0 3.3.4 4 1.3a5.9 5.9 0 0 1 1.1 4v1.5h-3.5v-1.7a8.8 8.8 0 0 0-.1-1.3 1.5 1.5 0 0 0-.5-.8 1.3 1.3 0 0 0-1-.3 1.2 1.2 0 0 0-1.2.6 4.8 4.8 0 0 0-.3 2v8.2c0 .6 0 1.3.3 1.9a1.3 1.3 0 0 0 1.3.6 1.1 1.1 0 0 0 1.2-.6 5.1 5.1 0 0 0 .2-2v-1.6H83v1.5a6.3 6.3 0 0 1-1 4c-.8 1-2.1 1.4-4 1.4s-3.3-.5-4.1-1.6zm14-16.9h4L95.4 38H92l-.6-4h-2.8l-.7 4h-3.5l3.5-18.3zm3.1 12-1-7.4-1.1 7.3h2.1zm7-9.2h-2.7v-2.8h9.2v2.8h-2.8v15.4H98V22.4z" fill="#111"/><path d="M111.7 19.6h7v2h-4.5v6h3.6v1.7h-3.6V36h4.5v1.8h-7V19.6zm9 0h1.8l5.1 12.1v-12h2.1v18.2h-1.6L123 25.4v12.4h-2l-.2-18.2zm11.8 0h7v2H135v6h3.7v1.7H135V36h4.5v1.8h-7.1V19.6zm9 0h3.7a6 6 0 0 1 4 1.2c.9.7 1.3 2 1.3 3.7 0 2.3-.7 3.7-2.2 4.2l2.6 9.1h-2.5l-2.3-8.5h-2v8.5h-2.5V19.6zm3.5 7.8c.9.1 1.7-.1 2.3-.6a3.1 3.1 0 0 0 .8-2.4 5.1 5.1 0 0 0-.3-1.7 1.6 1.6 0 0 0-.9-1 4 4 0 0 0-1.7-.3H144v6h1zm9 9a8.1 8.1 0 0 1-1.2-4.6v-6a11.9 11.9 0 0 1 .4-3.5 3.9 3.9 0 0 1 1.5-2.1 5 5 0 0 1 3-.7c.6-.1 1.3 0 1.9.2a4.5 4.5 0 0 1 1.6 1 6.1 6.1 0 0 1 1.1 4v.8H160v-.6a10 10 0 0 0-.2-2 1.7 1.7 0 0 0-.6-1.1 2.6 2.6 0 0 0-1.5-.4 2.2 2.2 0 0 0-1.6.5 2.2 2.2 0 0 0-.6 1.3 13 13 0 0 0-.2 2.2V32a6.6 6.6 0 0 0 .5 3 2.4 2.4 0 0 0 2 1 2.4 2.4 0 0 0 1.9-1 7.1 7.1 0 0 0 .5-3.2v-1.3h-2.3v-1.8h4.6v9h-1.6l-.2-2a3.2 3.2 0 0 1-1.2 1.7 3.2 3.2 0 0 1-2 .6 4 4 0 0 1-2-.4 4 4 0 0 1-1.6-1.2zm13.7-5-3.9-11.8h2.4l2.7 8.8 2.7-8.8h2.4l-3.9 11.8v6.4h-2.4v-6.4z" fill="#444"/></g><defs><clipPath id="a"><path fill="#fff" d="M0 0h174v51.7H0z"/></clipPath></defs></svg>