<svg width="202" height="59" fill="none" xmlns="http://www.w3.org/2000/svg"><g clip-path="url(#a)"><path d="M59.9 23.8a25.4 25.4 0 0 0-8-10.4 25.7 25.7 0 0 0-12.3-5 25.8 25.8 0 0 0-13 1.7A25.6 25.6 0 0 0 16 18 25.3 25.3 0 0 0 11 30a25.2 25.2 0 0 0 1.6 13 25.4 25.4 0 0 0 7.9 10.5 25.7 25.7 0 0 0 12.1 5.2 113 113 0 0 1-1.7-6.8 32.4 32.4 0 0 0 4.8 2.6s.1 2.1.3 4.5c1.7 0 3.5-.1 5.3-.5a2.1 2.1 0 0 1 0-.7c.3-1.9 1-5.2 1.2-7.4a15.1 15.1 0 0 0 3-3.7l-.1.5c-.6 4.2-1.7 8.7-2.4 10a5.5 5.5 0 0 1-.8 1.1 25.7 25.7 0 0 0 9.9-4.7 25.5 25.5 0 0 0 7-8.5 25.3 25.3 0 0 0 .9-21.3zm-1.5 3.8c-.4.4-1.3.7-1.5-.6a34 34 0 0 1-.2-2.2s-2-3.4-2.6-3.4c-.7 0-5.9 3.4-7.2 5-1.2 1.2-1.4 1.1-1.4 3.4 0 1.7.2 8 0 13l-8 2.1c-2.6.7-5.2 1.3-7.9 1.7l-1-5.8h-.1l-2.6-13-5.2-1.8a3.8 3.8 0 0 0-4 .6 5 5 0 0 0-1.3 1.7 5 5 0 0 0-.4 2.1l.5 1.4c0 .5-1.2.5-2 .5s-1-1.5-.3-3.1c.5-1.3 1-2.6 1.8-3.7a11.8 11.8 0 0 1 2-3s.2-.3 1.3-.2l7.3.5v-2.3A144 144 0 0 1 46 19.2V21a22.7 22.7 0 0 1 8.1-2 1 1 0 0 1 .8.4l2.7 3.4a27.7 27.7 0 0 1 1.8 3 6.2 6.2 0 0 1-.9 1.8z" fill="#FDC305"/><path d="m56.5 21.5 1 1.3a27.7 27.7 0 0 1 1.8 3c-.2.6-.5 1.2-.9 1.7-.4.4-1.3.7-1.5-.6l-.2-2.1s-2-3.4-2.6-3.4c-.7 0-5.9 3.4-7.2 5-1.2 1.2-1.4 1.1-1.4 3.4 0 1.4.2 6.6.1 11.1 1.8.2 4.5.7 5.3 1.9 0 0-.3-7.2 7.8-3.4 0 0 .3-9.7 11.5-7.3a43.7 43.7 0 0 0-13.7-10.6zm-10.6-2.3a89 89 0 0 0-1.4-16.4s-.1-1.3-.8-.2a14 14 0 0 0-1.2 4 71.5 71.5 0 0 0-12.9.3c-.8-2.8-2.2-4-2.8-3.7-.7.4-.8 3.3-.8 3.3l-.3 14a144 144 0 0 1 20.2-1.3z" fill="#F06351"/><path d="m45.4 46.7.2-4-8.2 2.2a64.4 64.4 0 0 1-7.8 1.7l1.2 5v.3a32.4 32.4 0 0 0 4.8 2.5 42.5 42.5 0 0 0 6.9-4 15.1 15.1 0 0 0 2.9-3.7z" fill="#E55645"/><path d="m32 16 1.4 1c.4.2.6.4.6.6 0 .2-.2.3-.6.3s-1 0-1-.2.6 0 1 0h.2A8 8 0 0 1 32 16zm7.5.2-1 1.3c-.2 0-.3.4.1.3a8.1 8.1 0 0 0 1.2-.3c.1 0 0-.2-.1-.1h-1l.9-1.2s0-.1-.1 0zm-3.1 6a2.3 2.3 0 0 0 1-1c.3-.6 0-.8-.4-1-.6 0-1.2 0-1.7.4-.4.4-.4.7 0 1a5.2 5.2 0 0 0 1 .7z" fill="#000"/><path d="M36 23.5a2 2 0 0 1-.5.6c-.2.2-.6.4-1 .4A2.2 2.2 0 0 1 33 24a2 2 0 0 1-.5-.4 1 1 0 0 0-.4-.3s.8 4.1 2.6 4.8c1.8.6 2.1-.8 2.2-1.1a5.5 5.5 0 0 0-.8-3.3c0-.3 0 0-.1-.2z" fill="#F06351"/><path d="M34.3 24.6a3.5 3.5 0 0 1-2.3-1.4.1.1 0 0 1 0-.2.1.1 0 0 1 .1 0 3.2 3.2 0 0 0 2.2 1.3 2.1 2.1 0 0 0 1.6-1l.1-.2.1.3s.4.7 1 .8c.7 0 1.1-.5 1.7-1.3a.1.1 0 0 1 .2 0 .1.1 0 0 1 0 .1c-.7 1-1.3 1.5-1.9 1.4a1.6 1.6 0 0 1-1.1-.7 2.3 2.3 0 0 1-1.7 1z" fill="#000"/><path d="M36.3 38c2 0 3.7-1.7 3.7-3.7s-1.7-3.7-3.7-3.7c-2.1 0-3.8 1.6-3.8 3.7 0 2 1.7 3.7 3.8 3.7z" fill="#FDC305"/><path d="m41.2 31.2-3.1 1.3 1.2-5.5-7.5 9.6 3-1.3-1 5.6 7.4-9.7zM33.8 35l4.2-5.3-.8 4 2-.9-4.2 5.4.8-4-2 .8zm-1.4-1.4c.7 0 1.2-.5 1.2-1.1 0-.6-.5-1.1-1.2-1.1-.6 0-1 .5-1 1 0 .7.4 1.2 1 1.2zm6.6 4c.4 0 .8-.3.8-.8a.8.8 0 0 0-.8-.8c-.5 0-.8.4-.8.8 0 .5.3.8.8.8zm1-2.1c.1 0 .3-.2.3-.4a.3.3 0 0 0-.4-.3.3.3 0 0 0-.3.3c0 .2.1.4.3.4z" fill="#111"/><path d="M45.9 21a57.2 57.2 0 0 0-5.1 5.2 31.8 31.8 0 0 1-5.3 4.8c-.2-.5-1.6-1.5-1.6-1.5s-3.2-2.1-5.2-3.8a31.8 31.8 0 0 1-3.2-3h-2a22.6 22.6 0 0 0 12 8.7c.9-.2 3.3-1.9 5.1-3.3a57.4 57.4 0 0 0 6-5.8 6.3 6.3 0 0 0 1.1-2L46 21z" fill="#F06351"/><path d="m65.2 3.5-8.4 9.3-1.3-2L63.7 0l1.5 3.5zM62.7 17l5.5-4-.8-3.8-5.4 4.8.7 3zM59.9 49l6.2 3.1 3-2.3-6.7-2.7-2.5 1.9zM2 6 5 2.5l9.3 9-1.2 2.2L1.9 5.9zM7.5 16l-4.7-3-2.4 3.8 5.1 2.4 2-3.2zm6.5 36-4.5 3.3 2.8 3.6 4-4-2.3-2.9z" fill="#FDC305"/><path d="M26 27.8 20.6 26a3.8 3.8 0 0 0-4 .6 5 5 0 0 0-1.3 1.7 5 5 0 0 0-.4 2.1l.5 1.4c0 .5-1.2.5-2 .5s-1-1.5-.3-3.1c.5-1.3 1-2.6 1.8-3.7-5.4 2.8-15 9.3-15 9.3a46.2 46.2 0 0 1 8.2.2c5.2.5 5 4.6 5 4.6a39 39 0 0 1 5.6-1c2.1-.2 2.3 2 2.3 2l.5 3.9a18.2 18.2 0 0 1 2.7-2.4 6 6 0 0 1 4.4-1.3l-2.8-13z" fill="#F06351"/><path d="M85.7 41.7a8.2 8.2 0 0 1-1.4-5.2v-7.4a8.3 8.3 0 0 1 1.3-5.2c1-1.2 2.6-1.8 4.8-1.8 2.2 0 3.8.5 4.5 1.6a6.6 6.6 0 0 1 1.4 4.4V30H92v-2a9.8 9.8 0 0 0-.1-1.4 1.7 1.7 0 0 0-.5-1 1.6 1.6 0 0 0-1.1-.3 1.5 1.5 0 0 0-.9.1 1.5 1.5 0 0 0-.6.6 5.4 5.4 0 0 0-.4 2.2v9.4a4.7 4.7 0 0 0 .4 2.2 1.5 1.5 0 0 0 1.5.8 1.4 1.4 0 0 0 1.4-.8 5.8 5.8 0 0 0 .3-2.2v-2h4.1v1.8a7.1 7.1 0 0 1-1.2 4.5c-.9 1.1-2.4 1.7-4.6 1.7-2.1 0-3.8-.6-4.7-1.8zm16.2-19.3h4.8l4 20.8h-4l-.7-4.6h-3.3l-.8 4.6h-4l4-20.8zm3.7 13.6-1.3-8.4-1.2 8.4h2.5zm8.1-10.5h-3.2v-3.1h10.7v3.1H118v17.7h-4.3V25.5z" fill="#111"/><path d="M129.6 22.4h8.1v2.2h-5.2v6.8h4.3v2h-4.3v7.7h5.3v2.1h-8.2V22.4zm10.6 0h2l6 13.8V22.4h2.4v20.8h-1.9l-6-14.2v14.2h-2.5V22.4zm13.6 0h8.1v2.2h-5.2v6.8h4.3v2h-4.2v7.7h5.2v2.1h-8.2V22.4zm10.6 0h4.2a7 7 0 0 1 4.6 1.3c1 .9 1.5 2.3 1.5 4.2 0 2.7-.8 4.3-2.6 4.9l3 10.4h-2.8l-2.7-9.8h-2.3v9.8h-3V22.4zm4 9a3.9 3.9 0 0 0 2.7-.8 3.5 3.5 0 0 0 .8-2.7 5.8 5.8 0 0 0-.3-2 1.9 1.9 0 0 0-1-1 4.8 4.8 0 0 0-2-.4h-1.4v6.9h1.2zm10.3 10.3a9.1 9.1 0 0 1-1.3-5.3v-7a13.3 13.3 0 0 1 .5-4 4.4 4.4 0 0 1 1.7-2.3 6 6 0 0 1 3.4-.9 5.3 5.3 0 0 1 4.2 1.5 6.9 6.9 0 0 1 1.3 4.6v.8h-2.8v-.7a11.3 11.3 0 0 0-.2-2.3 2 2 0 0 0-.7-1.2 3 3 0 0 0-1.7-.4 2.5 2.5 0 0 0-1.9.5 2.5 2.5 0 0 0-.7 1.5 14.5 14.5 0 0 0-.2 2.5v7.7a7.4 7.4 0 0 0 .6 3.4 2.9 2.9 0 0 0 4.5 0 8 8 0 0 0 .6-3.7V35h-2.7v-2.1h5.3v10.3h-1.8l-.3-2.4a3.7 3.7 0 0 1-1.4 2 3.7 3.7 0 0 1-2.3.7 4.7 4.7 0 0 1-2.3-.4 4.7 4.7 0 0 1-1.8-1.4zm16-5.8-4.5-13.5h2.7l3.2 10 3.2-10h2.7l-4.5 13.5v7.3h-2.8v-7.3z" fill="#444"/></g><defs><clipPath id="a"><path fill="#fff" d="M0 0h202v59H0z"/></clipPath></defs></svg>