<svg width="80" height="83" fill="none" xmlns="http://www.w3.org/2000/svg"><path d="M65.7 35.8H14.4a3.3 3.3 0 0 1-3.3-3.2v-9.8c0-1.8 1.5-3.3 3.3-3.3h51.3c1.8 0 3.2 1.5 3.2 3.3v9.8c0 1.8-1.4 3.2-3.2 3.2ZM14.4 22c-.4 0-.8.4-.8.8v9.8c0 .4.4.7.8.7h51.3c.4 0 .7-.3.7-.7v-9.8c0-.4-.3-.8-.7-.8H14.4Z" fill="#fff"/><path d="M58.5 69.3h-37a6.3 6.3 0 0 1-6.2-6.3V34.6a1.3 1.3 0 0 1 2.5 0V63c0 2.1 1.7 3.8 3.7 3.8h37c2 0 3.8-1.7 3.8-3.8V34.6a1.3 1.3 0 0 1 2.5 0V63c0 3.5-2.8 6.3-6.3 6.3Z" fill="#fff"/><path d="M40 69.3c-.7 0-1.2-.6-1.2-1.2V34.6a1.3 1.3 0 0 1 2.5 0V68c0 .6-.6 1.2-1.3 1.2ZM24.4 22a8 8 0 0 1 7.7-14.2c6 3.3 9.2 12.3 9.3 12.7l-2.3.8c0-.1-3-8.5-8.2-11.3a5.6 5.6 0 0 0-5.3 9.8L24.4 22Z" fill="#fff"/><path d="m55.6 22-1.2-2.2a5.5 5.5 0 0 0 2.3-7.5A5.5 5.5 0 0 0 49 10c-5 2.8-8 11.2-8.1 11.3l-2.4-.8C38.8 20 42 11 48 7.8a8 8 0 0 1 11 3.3 8 8 0 0 1-3.3 11ZM63.5 52.6h-47a1.3 1.3 0 0 1 0-2.5h47a1.3 1.3 0 0 1 0 2.5Z" fill="#fff"/></svg>