<svg width="30" height="31" fill="none" xmlns="http://www.w3.org/2000/svg"><g clip-path="url(#a)" fill="#fff"><path d="M21.3 18.5c-1.7 0-3.1 1.5-3.1 3.3 0 1.8 1.4 3.3 3 3.3 1.8 0 3.2-1.5 3.2-3.3 0-1.8-1.4-3.3-3.1-3.3Zm0 5c-1 0-1.6-.8-1.6-1.7 0-1 .7-1.7 1.6-1.7.9 0 1.6.7 1.6 1.7s-.7 1.7-1.6 1.7ZM12 0C10.3 0 9 1.5 9 3.4s1.4 3.4 3.2 3.4c1.8 0 3.2-1.5 3.2-3.4S13.9 0 12 0Zm0 5.5c-1 0-2-1-2-2.1s1-2 2-2 2 .9 2 2-1 2-2 2ZM8.7 17.6c-1.3 0-2.3 1.1-2.3 2.5s1 2.5 2.3 2.5c1.3 0 2.4-1.1 2.4-2.5s-1-2.5-2.4-2.5Zm-.2 1.9c-.5 0 1.2 1.1 1.2.6 0-.5-1.7.4-1.2.4s1-.9 1-.4-.5-.6-1-.6ZM19 9.8s3-.9 6.2 1.5c.9.7 1.7 1.3 1.1 2-.3.4-.6.7-1.7-.4a7 7 0 0 0-5.6-1.5c-1.1.2-2 .6-3.6 2.2A8.3 8.3 0 0 1 9 16a8.1 8.1 0 0 1-5.2-2.6c-.3-.4-.3-.9-.1-1.1.1-.3.8-.5 1.2-.1.3.3 2 2 3.8 2 1.7.1 3.4.2 5.7-2 2.3-2.1 3.5-2.3 4.7-2.5Z"/><mask id="b"><path d="M29.1 26.8V8.2c0-.6-.3-.7-.5-.7h-.5c-.5 0-.5.6-.5.7v18.6a2.7 2.7 0 0 1-.8 2c-.9.6-1.7.5-1.7.5H4.5c-.4 0-1-.2-1.6-1-.6-.8-.5-1.9-.5-1.9v-18c0-1-.7-.9-.7-.9h-.3c-.5 0-.5.6-.5.8v18.5c0 1.4.4 2.4 1.5 3.4 1.1.9 2.4.8 2.4.8h20.6c.8 0 2-.4 2.9-1.5.9-1.2.8-2.7.8-2.7Z"/></mask><path d="M29.1 26.8V8.2c0-.6-.3-.7-.5-.7h-.5c-.5 0-.5.6-.5.7v18.6a2.7 2.7 0 0 1-.8 2c-.9.6-1.7.5-1.7.5H4.5c-.4 0-1-.2-1.6-1-.6-.8-.5-1.9-.5-1.9v-18c0-1-.7-.9-.7-.9h-.3c-.5 0-.5.6-.5.8v18.5c0 1.4.4 2.4 1.5 3.4 1.1.9 2.4.8 2.4.8h20.6c.8 0 2-.4 2.9-1.5.9-1.2.8-2.7.8-2.7Z"/><path d="M29.1 26.8h-20v.8l20-.8Zm-.5-19.3.7-20h-.7v20Zm-1 .7-20-.1v.1h20Zm0 .1h-20 20Zm0 18.5-20-.7 20 .7Zm-.8 2 13 15 .4-.3.4-.4-13.8-14.4Zm-1.7.5 2.3-19.8-1.1-.2H25v20Zm-20.6 0L1 49l1.1.2h1.2l1-19.9Zm-1.6-1-16.4 11.5L3 28.3Zm-.5-1.9 20 2.1v-2h-20ZM1.7 7.5v20h.8l-.8-20Zm-.8.8-20-.3V8.3h20Zm1.5 21.9-13 15.1 13-15.1Zm2.4.8V11H3.5l1.3 20Zm23.5-1.5L43.8 42 28.3 29.5ZM49 26.8V8.2h-40v18.6h40Zm0-18.6a20.6 20.6 0 0 0-19.8-20.7l-1.4 40a19.5 19.5 0 0 1-11.5-4.3A19.4 19.4 0 0 1 9 8.2h40ZM28.6-12.5h-.5v40h.5v-40Zm-.5 0a20.5 20.5 0 0 0-12.3 4A20.5 20.5 0 0 0 9.4-.3a21.1 21.1 0 0 0-1.8 8.5l40 .3c0 .7 0 3.9-1.7 7.6a19.5 19.5 0 0 1-6 7.6A19.5 19.5 0 0 1 28 27.5v-40ZM7.6 8.2h40-40Zm0 0v.1h40-40Zm0 .1v10.5a8367 8367 0 0 1 0 7.3c0 .8 0 .4 0 0l40 1.5V8.3h-40Zm0 17.8c0-1.4.4-7 5.3-11.8l27.7 28.8a22.7 22.7 0 0 0 7-15.5L7.6 26Zm6.1-12.5a17.5 17.5 0 0 1 7.8-3.9 18 18 0 0 1 4.7-.3 19.2 19.2 0 0 1 1.1 0l-2.2 20L23 49.1a14.8 14.8 0 0 0 .6 0 20.8 20.8 0 0 0 2.3.1 22 22 0 0 0 4-.4 22.5 22.5 0 0 0 10-5l-26-30.3Zm11.4 15.7v-20h-.8a17598 17598 0 0 1-16.4 0H5.6c-1 0-.6 0 0 0l-2.2 40H25v-20ZM8 9.6c.4 0 2.5.4 5 1.6a17.6 17.6 0 0 1 6.3 5.6l-32.7 23c5 7.1 12 8.8 14.6 9.2L7.9 9.6Zm11.3 7.2c2.4 3.3 3 6.5 3.1 8a16.6 16.6 0 0 1 0 3.4 18.5 18.5 0 0 1 0 .3l-19.9-2-19.9-2.1a19.7 19.7 0 0 0 0 .4 21.7 21.7 0 0 0 0 1.5 23.5 23.5 0 0 0 4 13.5l32.7-23Zm3.2 9.6v-18h-40v18h40Zm0-18c0-7-3.4-14-10.2-18A20.7 20.7 0 0 0 1-12.6l.7 20 .8 20a28.6 28.6 0 0 1-.4 0 19.4 19.4 0 0 1-10-2.6 19.4 19.4 0 0 1-7.3-7.5 19 19 0 0 1-2.4-9h40ZM1.7-12.6h-.3v40h.3v-40Zm-.3 0c-4 0-8.3 1.2-12 4a20.6 20.6 0 0 0-6.6 7.9 21.2 21.2 0 0 0-2 8.6l40 .6c0 .7 0 4-1.7 7.7a19.4 19.4 0 0 1-6.2 7.5 19.5 19.5 0 0 1-11.5 3.7v-40ZM-19 8.3v18.5h40V8.3h-40Zm0 18.5c0 7 2.9 13.7 8.5 18.5l26-30.3c1.3 1 2.9 2.8 4 5.3a15.7 15.7 0 0 1 1.5 6.5h-40Zm8.5 18.5A23.6 23.6 0 0 0-.1 50.5a23.6 23.6 0 0 0 5 .5 21.3 21.3 0 0 0 1 0H6L4.8 31 3.5 11a429.6 429.6 0 0 1 .2 0 19.7 19.7 0 0 1 .8 0 17.3 17.3 0 0 1 3.6.4c2 .4 4.7 1.3 7.3 3.6l-26 30.3ZM4.8 31v20h20.6l-.1-40H4.8v20Zm20.6 20c7.1 0 13.8-3.3 18.4-8.9l-31-25.3c2.7-3.3 7.1-5.8 12.5-5.8l.1 40Zm18.4-8.9a24 24 0 0 0 4.9-10.5A24.7 24.7 0 0 0 49 27a21.8 21.8 0 0 0 0-1l-20 .8-20 .8a18.4 18.4 0 0 1 0-1.7l.3-2a16 16 0 0 1 3.4-7l31 25.2Z" mask="url(#b)"/></g><defs><clipPath id="a"><path fill="#fff" transform="translate(.5)" d="M0 0h29v31H0z"/></clipPath></defs></svg>